<svg xmlns="http://www.w3.org/2000/svg" viewBox="0 0 1600 720" width="1600" height="720">
  <style>
.logo-text { font-family: 'Sora', 'Inter', 'Arial', sans-serif; font-weight: 800; fill: #000000; letter-spacing: -0.055em; }
.small-text { font-family: 'Sora', 'Inter', 'Arial', sans-serif; font-weight: 700; fill: #000000; letter-spacing: -0.02em; }
</style>
  <g transform="translate(80,118) scale(0.78)">
    <rect x="32" y="32" width="448" height="448" rx="92" fill="#000"/>
    <rect x="78" y="176" width="356" height="160" rx="36" fill="#fff"/>
    <rect x="108" y="241" width="30" height="30" rx="7" fill="#000"/><rect x="154" y="241" width="30" height="30" rx="7" fill="#000"/><rect x="200" y="241" width="30" height="30" rx="7" fill="#000"/><rect x="246" y="241" width="30" height="30" rx="7" fill="#000"/><rect x="292" y="241" width="30" height="30" rx="7" fill="#000"/><rect x="338" y="241" width="30" height="30" rx="7" fill="#000"/>
    <rect x="377" y="205" width="8" height="100" rx="4" fill="#000"/>
    <rect x="367" y="204" width="28" height="8" rx="4" fill="#000"/>
    <rect x="367" y="298" width="28" height="8" rx="4" fill="#000"/>
  </g>
  <text class="logo-text" x="560" y="230" font-size="132">Much</text>
  <text class="logo-text" x="560" y="365" font-size="132">Better</text>
  <text class="logo-text" x="560" y="500" font-size="132">Authenticator</text>
</svg>